<svg xmlns="http://www.w3.org/2000/svg" xmlns:xlink="http://www.w3.org/1999/xlink" version="1.1" x="0px" y="0px" viewBox="0 0 100 125" enable-background="new 0 0 100 100" xml:space="preserve"><path d="M72.34,40.365h-5.215V29.558c0-9.442-7.683-17.125-17.125-17.125s-17.125,7.683-17.125,17.125v10.808H27.66  c-3.584,0-6.5,2.916-6.5,6.5v34.202c0,3.584,2.916,6.5,6.5,6.5h44.68c3.584,0,6.5-2.916,6.5-6.5V46.865  C78.84,43.281,75.924,40.365,72.34,40.365z M35.875,29.558c0-7.788,6.337-14.125,14.125-14.125s14.125,6.337,14.125,14.125v10.808  h-28.25V29.558z M75.84,81.067c0,1.93-1.57,3.5-3.5,3.5H27.66c-1.93,0-3.5-1.57-3.5-3.5V46.865c0-1.93,1.57-3.5,3.5-3.5h44.68  c1.93,0,3.5,1.57,3.5,3.5V81.067z M50,55.269c-2.781,0-5.044,2.263-5.044,5.044c0,2.256,1.498,4.147,3.544,4.79v7.065  c0,0.828,0.672,1.5,1.5,1.5s1.5-0.672,1.5-1.5v-7.065c2.046-0.643,3.544-2.534,3.544-4.79C55.044,57.531,52.781,55.269,50,55.269z   M50,62.356c-1.127,0-2.044-0.917-2.044-2.044s0.917-2.044,2.044-2.044s2.044,0.917,2.044,2.044S51.127,62.356,50,62.356z"/></svg>