<svg xmlns:dc="http://purl.org/dc/elements/1.1/" xmlns:cc="http://creativecommons.org/ns#" xmlns:rdf="http://www.w3.org/1999/02/22-rdf-syntax-ns#" xmlns:svg="http://www.w3.org/2000/svg" xmlns="http://www.w3.org/2000/svg" xmlns:sodipodi="http://sodipodi.sourceforge.net/DTD/sodipodi-0.dtd" xmlns:inkscape="http://www.inkscape.org/namespaces/inkscape" version="1.1" x="0px" y="0px" viewBox="0 0 100 125"><g transform="translate(0,-952.36218)"><path style="text-indent:0;text-transform:none;direction:ltr;block-progression:tb;baseline-shift:baseline;color:#000000;enable-background:accumulate;" d="m 9.0000001,974.36215 c -1.0907,0 -2,0.90925 -2,2 l 0,52.00005 c 0,1.0907 0.9093,2 2,2 l 81.9999999,0 c 1.0907,0 2,-0.9093 2,-2 l 0,-52.00005 c 0,-1.09075 -0.9093,-2 -2,-2 l -81.9999999,0 z m 0.5625,2 80.8749999,0 L 50,1011.0184 9.5625001,976.36215 z m -0.5625,2.15625 L 35,1000.8309 l -25.9999999,26 0,-48.3125 z m 81.9999999,0 0,48.3125 -26,-26 26,-22.3125 z m -54.4375,23.625 12.7813,10.9687 a 1.0001,1.0001 0 0 0 1.3124,0 l 12.7813,-10.9687 26.2187,26.2188 -79.3124,0 26.2187,-26.2188 z m -27.5624999,26.125 0.094,0.094 -0.094,0 0,-0.094 z m 81.9999999,0 0,0.094 -0.094,0 0.094,-0.094 z" fill="#000000" fill-opacity="1" stroke="none" marker="none" visibility="visible" display="inline" overflow="visible"/></g></svg>